<svg xmlns="http://www.w3.org/2000/svg" viewBox="0 0 64 64" width="64" height="64">
  <defs>
    <linearGradient id="goldGrad" x1="0%" y1="0%" x2="100%" y2="100%">
      <stop offset="0%" stop-color="#fbbf24" />
      <stop offset="50%" stop-color="#f59e0b" />
      <stop offset="100%" stop-color="#d97706" />
    </linearGradient>
    <filter id="shadow" x="-10%" y="-10%" width="120%" height="120%">
      <feDropShadow dx="0" dy="2" stdDeviation="2" flood-color="#000000" flood-opacity="0.25" />
    </filter>
  </defs>

  <!-- Luxury Gold Background Squircle matching Landing Page Logo -->
  <rect width="64" height="64" rx="16" fill="url(#goldGrad)" />
  <rect width="62" height="62" x="1" y="1" rx="15" fill="none" stroke="#ffffff" stroke-opacity="0.35" stroke-width="1.5" />

  <!-- Lucide FileText Icon in dark zinc/slate (#09090b) -->
  <g transform="translate(14, 14) scale(1.5)" fill="none" stroke="#09090b" stroke-width="2.3" stroke-linecap="round" stroke-linejoin="round" filter="url(#shadow)">
    <path d="M15 2H6a2 2 0 0 0-2 2v16a2 2 0 0 0 2 2h12a2 2 0 0 0 2-2V7Z" />
    <path d="M14 2v4a2 2 0 0 0 2 2h4" />
    <path d="M10 9H8" />
    <path d="M16 13H8" />
    <path d="M16 17H8" />
  </g>
</svg>
